<svg width="25" height="25" viewBox="0 0 25 25" fill="none" xmlns="http://www.w3.org/2000/svg">
<g clip-path="url(#clip0_7_232)">
<path d="M1.08011 6.13437L-0.00634766 4.36353L7.00928 0.0645752L8.09469 1.84166L1.08011 6.13437ZM23.202 16.8927L18.9051 23.8542L20.6759 24.949L24.9728 17.9865L23.202 16.8927ZM21.7957 15.2083L16.6666 23.524C16.4328 23.9199 16.1111 24.2568 15.7264 24.5085C15.3417 24.7603 14.9042 24.9203 14.4478 24.976C14.3165 24.992 14.1843 25 14.052 25C13.6546 25.0003 13.2611 24.9218 12.8942 24.7691C12.5273 24.6165 12.1943 24.3926 11.9145 24.1104L10.9114 23.1073C9.95831 23.7743 8.80071 24.0843 7.64186 23.9826C6.48301 23.881 5.39702 23.3743 4.57463 22.5516C3.75224 21.7288 3.24604 20.6426 3.14494 19.4837C3.04383 18.3248 3.35429 17.1673 4.02178 16.2146L0.888444 13.0802C0.570595 12.7623 0.32739 12.3778 0.176431 11.9544C0.0254722 11.531 -0.0294634 11.0793 0.0156001 10.6321C0.0606637 10.1848 0.204599 9.7532 0.436989 9.36842C0.669378 8.98364 0.984408 8.65534 1.35928 8.40728L9.44469 3.45937C10.9733 2.47965 12.7698 2.00207 14.5831 2.0934C16.3964 2.18473 18.1358 2.84039 19.5582 3.96874L21.5291 1.99791L23.002 3.47083L21.0228 5.44999C22.1033 6.81728 22.7535 8.47456 22.8911 10.2118C23.0287 11.949 22.6475 13.688 21.7957 15.2083ZM9.38532 21.5812L5.53949 17.7323C5.25343 18.2706 5.14869 18.8869 5.24084 19.4895C5.33298 20.0921 5.61709 20.6488 6.05094 21.0771C6.48806 21.4927 7.04235 21.764 7.63875 21.8542C8.23515 21.9443 8.84486 21.8491 9.38532 21.5812ZM18.8853 6.14583C17.8106 5.06282 16.397 4.3812 14.8804 4.21475C13.3638 4.0483 11.836 4.4071 10.552 5.23124L2.47699 10.1646C2.36651 10.2418 2.27441 10.3424 2.20725 10.4592C2.14009 10.5761 2.09953 10.7063 2.08844 10.8406C2.0734 10.9807 2.09013 11.1224 2.13738 11.2551C2.18463 11.3878 2.26118 11.5082 2.36136 11.6073L13.3884 22.6375C13.4896 22.7417 13.614 22.8205 13.7513 22.8675C13.8887 22.9146 14.0353 22.9286 14.1791 22.9083C14.323 22.8909 14.4609 22.8404 14.582 22.7607C14.7031 22.681 14.8041 22.5743 14.877 22.449L20.002 14.1437C20.7088 12.87 20.9821 11.4009 20.7806 9.95812C20.5792 8.51538 19.914 7.17731 18.8853 6.14583Z" fill="black"/>
</g>
<defs>
<clipPath id="clip0_7_232">
<rect width="25" height="25" fill="white"/>
</clipPath>
</defs>
</svg>
