<svg width="15" height="15" viewBox="0 0 15 15" fill="none" xmlns="http://www.w3.org/2000/svg">
<g clip-path="url(#clip0_137_291)">
<path d="M0.7325 11.9494C0.263627 12.4181 0.000141594 13.0539 0 13.7169L0 15H1.28312C1.94611 14.9999 2.58189 14.7364 3.05063 14.2675L11.39 5.92813L9.07188 3.61L0.7325 11.9494Z" fill="#001219"/>
<path d="M14.4656 0.53437C14.3134 0.382017 14.1327 0.261155 13.9338 0.178693C13.7348 0.0962314 13.5216 0.0537872 13.3063 0.0537872C13.0909 0.0537872 12.8777 0.0962314 12.6787 0.178693C12.4798 0.261155 12.2991 0.382017 12.1469 0.53437L9.95563 2.72624L12.2738 5.04437L14.4656 2.85312C14.618 2.70093 14.7388 2.5202 14.8213 2.32126C14.9038 2.12233 14.9462 1.90909 14.9462 1.69375C14.9462 1.4784 14.9038 1.26516 14.8213 1.06623C14.7388 0.867294 14.618 0.686564 14.4656 0.53437Z" fill="#001219"/>
</g>
<defs>
<clipPath id="clip0_137_291">
<rect width="15" height="15" fill="white"/>
</clipPath>
</defs>
</svg>
