<svg width="16" height="16" viewBox="0 0 16 16" fill="none" xmlns="http://www.w3.org/2000/svg">
<g clip-path="url(#clip0_19_861)">
<path d="M15.6141 11.0553L13.4201 8.8613C13.3589 8.79618 13.2853 8.74402 13.2036 8.70791C13.1219 8.67179 13.0338 8.65247 12.9445 8.65108C12.8551 8.64969 12.7665 8.66627 12.6837 8.69983C12.6009 8.73339 12.5257 8.78324 12.4625 8.84643C12.3994 8.90962 12.3496 8.98485 12.3161 9.06766C12.2826 9.15047 12.2661 9.23917 12.2675 9.32849C12.269 9.41781 12.2884 9.50593 12.3245 9.58761C12.3607 9.66929 12.4129 9.74286 12.4781 9.80397L14.0048 11.3333C13.1748 11.3352 12.3529 11.171 11.5874 10.8504C10.8219 10.5298 10.1283 10.0593 9.54742 9.46663C9.48291 9.40723 9.40713 9.36139 9.32457 9.33184C9.242 9.30228 9.15435 9.28962 9.06679 9.29459C8.97924 9.29956 8.89358 9.32208 8.8149 9.36079C8.73622 9.39951 8.66611 9.45364 8.60875 9.51997L8.60008 9.5333C8.488 9.66368 8.43063 9.83233 8.43995 10.004C8.44926 10.1757 8.52455 10.3371 8.65009 10.4546C9.34995 11.1624 10.1845 11.7228 11.1046 12.1028C12.0246 12.4827 13.0114 12.6744 14.0068 12.6666L12.4781 14.1953C12.4084 14.2552 12.3519 14.3289 12.3121 14.4117C12.2722 14.4945 12.2499 14.5846 12.2466 14.6764C12.2432 14.7682 12.2589 14.8598 12.2926 14.9452C12.3263 15.0307 12.3773 15.1083 12.4424 15.1731C12.5075 15.238 12.5853 15.2886 12.6709 15.322C12.7566 15.3553 12.8481 15.3706 12.94 15.3668C13.0318 15.3631 13.1218 15.3404 13.2044 15.3002C13.287 15.26 13.3605 15.2032 13.4201 15.1333L15.6141 12.9393C15.8636 12.6893 16.0038 12.3505 16.0038 11.9973C16.0038 11.6441 15.8636 11.3053 15.6141 11.0553Z" fill="#EE9B00"/>
<path d="M14.0046 4.66668L12.4779 6.19335C12.4649 6.2109 12.4529 6.22915 12.4419 6.24801C12.3343 6.37918 12.2813 6.54668 12.2937 6.71586C12.3061 6.88505 12.3831 7.04299 12.5087 7.15703C12.6343 7.27106 12.7989 7.33248 12.9685 7.32856C13.1381 7.32465 13.2997 7.25572 13.4199 7.13601L14.5572 6.00001L15.6146 4.94335C15.7933 4.76319 15.917 4.53574 15.9709 4.28775C16.0249 4.03975 16.007 3.7815 15.9192 3.54335C15.8545 3.36105 15.7502 3.19531 15.6139 3.05801L13.4199 0.866681C13.359 0.800554 13.2854 0.747415 13.2035 0.71046C13.1216 0.673504 13.033 0.653494 12.9432 0.651632C12.8533 0.649771 12.764 0.666096 12.6807 0.699627C12.5973 0.733158 12.5215 0.783202 12.458 0.846751C12.3944 0.910301 12.3444 0.986044 12.3109 1.06943C12.2773 1.15281 12.261 1.24211 12.2629 1.33197C12.2647 1.42182 12.2847 1.51037 12.3217 1.59229C12.3586 1.67421 12.4118 1.74782 12.4779 1.80868L14.0066 3.33668C10.7179 3.34468 8.91524 5.11935 7.28057 6.98601C5.77924 5.29135 3.99991 3.60001 0.99124 3.36401L0.670573 3.33335C0.493762 3.33335 0.324193 3.40359 0.199168 3.52861C0.0741441 3.65363 0.00390625 3.8232 0.00390625 4.00001C0.00731968 4.17576 0.0786534 4.34335 0.202945 4.46764C0.327237 4.59193 0.494831 4.66327 0.670573 4.66668C0.718573 4.66668 0.861906 4.68868 0.861906 4.68868C3.45924 4.88535 4.94991 6.34801 6.39991 8.00001C4.95857 9.64402 3.47791 11.1333 0.901906 11.3067L0.63524 11.3207C0.459755 11.3316 0.295812 11.4119 0.179477 11.5437C0.0631418 11.6755 0.00394397 11.8482 0.0149062 12.0237C0.0258685 12.1992 0.106093 12.3631 0.237931 12.4794C0.369769 12.5958 0.542421 12.655 0.717906 12.644C0.821906 12.6393 0.99124 12.6353 1.07457 12.6287C4.42124 12.3707 6.23657 10.2287 7.85524 8.35602C9.48991 6.46668 11.0339 4.67868 14.0046 4.66668Z" fill="#EE9B00"/>
</g>
<defs>
<clipPath id="clip0_19_861">
<rect width="16" height="16" fill="white"/>
</clipPath>
</defs>
</svg>
