<svg width="58" height="58" viewBox="0 0 58 58" fill="none" xmlns="http://www.w3.org/2000/svg">
<g filter="url(#filter0_d_31_487)">
<circle cx="29" cy="25" r="20" fill="#AE2012" shape-rendering="crispEdges"/>
<circle cx="29" cy="25" r="22.5" stroke="#AE2012" stroke-opacity="0.5" stroke-width="5" shape-rendering="crispEdges"/>
</g>
<g clip-path="url(#clip0_31_487)">
<path d="M34.9166 19.7778H32.7638C32.6027 18.994 32.1762 18.2898 31.5564 17.7838C30.9365 17.2778 30.1612 17.001 29.3611 17H27.9722C27.172 17.001 26.3967 17.2778 25.7769 17.7838C25.157 18.2898 24.7306 18.994 24.5694 19.7778H22.4166C22.2324 19.7778 22.0558 19.8509 21.9256 19.9812C21.7953 20.1114 21.7222 20.288 21.7222 20.4722C21.7222 20.6564 21.7953 20.833 21.9256 20.9633C22.0558 21.0935 22.2324 21.1667 22.4166 21.1667H23.1111V30.1944C23.1122 31.115 23.4783 31.9975 24.1293 32.6485C24.7802 33.2994 25.6627 33.6656 26.5833 33.6667H30.7499C31.6705 33.6656 32.553 33.2994 33.204 32.6485C33.8549 31.9975 34.2211 31.115 34.2222 30.1944V21.1667H34.9166C35.1008 21.1667 35.2774 21.0935 35.4077 20.9633C35.5379 20.833 35.6111 20.6564 35.6111 20.4722C35.6111 20.288 35.5379 20.1114 35.4077 19.9812C35.2774 19.8509 35.1008 19.7778 34.9166 19.7778V19.7778ZM27.9722 18.3889H29.3611C29.7918 18.3894 30.2118 18.5232 30.5636 18.7718C30.9153 19.0205 31.1815 19.3719 31.3256 19.7778H26.0076C26.1517 19.3719 26.4179 19.0205 26.7697 18.7718C27.1214 18.5232 27.5414 18.3894 27.9722 18.3889V18.3889ZM32.8333 30.1944C32.8333 30.747 32.6138 31.2769 32.2231 31.6676C31.8324 32.0583 31.3025 32.2778 30.7499 32.2778H26.5833C26.0307 32.2778 25.5008 32.0583 25.1101 31.6676C24.7194 31.2769 24.4999 30.747 24.4999 30.1944V21.1667H32.8333V30.1944Z" fill="white"/>
<path d="M27.2777 29.5C27.4619 29.5 27.6385 29.4269 27.7687 29.2966C27.899 29.1664 27.9721 28.9897 27.9721 28.8056V24.6389C27.9721 24.4547 27.899 24.2781 27.7687 24.1479C27.6385 24.0176 27.4619 23.9445 27.2777 23.9445C27.0935 23.9445 26.9169 24.0176 26.7867 24.1479C26.6564 24.2781 26.5833 24.4547 26.5833 24.6389V28.8056C26.5833 28.9897 26.6564 29.1664 26.7867 29.2966C26.9169 29.4269 27.0935 29.5 27.2777 29.5Z" fill="white"/>
<path d="M30.0555 29.5C30.2397 29.5 30.4163 29.4269 30.5466 29.2966C30.6768 29.1664 30.75 28.9897 30.75 28.8056V24.6389C30.75 24.4547 30.6768 24.2781 30.5466 24.1479C30.4163 24.0176 30.2397 23.9445 30.0555 23.9445C29.8714 23.9445 29.6947 24.0176 29.5645 24.1479C29.4342 24.2781 29.3611 24.4547 29.3611 24.6389V28.8056C29.3611 28.9897 29.4342 29.1664 29.5645 29.2966C29.6947 29.4269 29.8714 29.5 30.0555 29.5Z" fill="white"/>
</g>
<defs>
<filter id="filter0_d_31_487" x="0" y="0" width="58" height="58" filterUnits="userSpaceOnUse" color-interpolation-filters="sRGB">
<feFlood flood-opacity="0" result="BackgroundImageFix"/>
<feColorMatrix in="SourceAlpha" type="matrix" values="0 0 0 0 0 0 0 0 0 0 0 0 0 0 0 0 0 0 127 0" result="hardAlpha"/>
<feOffset dy="4"/>
<feGaussianBlur stdDeviation="2"/>
<feComposite in2="hardAlpha" operator="out"/>
<feColorMatrix type="matrix" values="0 0 0 0 0 0 0 0 0 0 0 0 0 0 0 0 0 0 0.1 0"/>
<feBlend mode="normal" in2="BackgroundImageFix" result="effect1_dropShadow_31_487"/>
<feBlend mode="normal" in="SourceGraphic" in2="effect1_dropShadow_31_487" result="shape"/>
</filter>
<clipPath id="clip0_31_487">
<rect width="16.6667" height="16.6667" fill="white" transform="translate(20.3333 17)"/>
</clipPath>
</defs>
</svg>
