<svg width="78" height="78" viewBox="0 0 78 78" fill="none" xmlns="http://www.w3.org/2000/svg">
<g filter="url(#filter0_d_7_203)">
<circle cx="39" cy="35" r="30" fill="#AE2012" shape-rendering="crispEdges"/>
<circle cx="39" cy="35" r="32.5" stroke="#AE2012" stroke-opacity="0.5" stroke-width="5" shape-rendering="crispEdges"/>
</g>
<g clip-path="url(#clip0_7_203)">
<path d="M47.875 27.1667H44.6458C44.404 25.9911 43.7644 24.9347 42.8346 24.1757C41.9049 23.4168 40.7419 23.0015 39.5416 23H37.4583C36.2581 23.0015 35.0951 23.4168 34.1653 24.1757C33.2356 24.9347 32.5959 25.9911 32.3541 27.1667H29.125C28.8487 27.1667 28.5838 27.2764 28.3884 27.4718C28.1931 27.6671 28.0833 27.9321 28.0833 28.2083C28.0833 28.4846 28.1931 28.7496 28.3884 28.9449C28.5838 29.1403 28.8487 29.25 29.125 29.25H30.1666V42.7917C30.1683 44.1725 30.7176 45.4963 31.694 46.4727C32.6704 47.4491 33.9942 47.9983 35.375 48H41.625C43.0058 47.9983 44.3296 47.4491 45.306 46.4727C46.2824 45.4963 46.8317 44.1725 46.8333 42.7917V29.25H47.875C48.1512 29.25 48.4162 29.1403 48.6116 28.9449C48.8069 28.7496 48.9166 28.4846 48.9166 28.2083C48.9166 27.9321 48.8069 27.6671 48.6116 27.4718C48.4162 27.2764 48.1512 27.1667 47.875 27.1667ZM37.4583 25.0833H39.5416C40.1878 25.0841 40.8178 25.2848 41.3454 25.6578C41.873 26.0307 42.2723 26.5578 42.4885 27.1667H34.5114C34.7277 26.5578 35.127 26.0307 35.6546 25.6578C36.1821 25.2848 36.8122 25.0841 37.4583 25.0833ZM44.75 42.7917C44.75 43.6205 44.4207 44.4153 43.8347 45.0014C43.2486 45.5874 42.4538 45.9167 41.625 45.9167H35.375C34.5462 45.9167 33.7513 45.5874 33.1653 45.0014C32.5792 44.4153 32.25 43.6205 32.25 42.7917V29.25H44.75V42.7917Z" fill="white"/>
<path d="M36.4167 41.75C36.6929 41.75 36.9579 41.6403 37.1532 41.4449C37.3486 41.2496 37.4583 40.9846 37.4583 40.7083V34.4583C37.4583 34.1821 37.3486 33.9171 37.1532 33.7218C36.9579 33.5264 36.6929 33.4167 36.4167 33.4167C36.1404 33.4167 35.8754 33.5264 35.6801 33.7218C35.4847 33.9171 35.375 34.1821 35.375 34.4583V40.7083C35.375 40.9846 35.4847 41.2496 35.6801 41.4449C35.8754 41.6403 36.1404 41.75 36.4167 41.75Z" fill="white"/>
<path d="M40.5834 41.75C40.8596 41.75 41.1246 41.6403 41.3199 41.4449C41.5153 41.2496 41.625 40.9846 41.625 40.7083V34.4583C41.625 34.1821 41.5153 33.9171 41.3199 33.7218C41.1246 33.5264 40.8596 33.4167 40.5834 33.4167C40.3071 33.4167 40.0421 33.5264 39.8468 33.7218C39.6514 33.9171 39.5417 34.1821 39.5417 34.4583V40.7083C39.5417 40.9846 39.6514 41.2496 39.8468 41.4449C40.0421 41.6403 40.3071 41.75 40.5834 41.75Z" fill="white"/>
</g>
<defs>
<filter id="filter0_d_7_203" x="0" y="0" width="78" height="78" filterUnits="userSpaceOnUse" color-interpolation-filters="sRGB">
<feFlood flood-opacity="0" result="BackgroundImageFix"/>
<feColorMatrix in="SourceAlpha" type="matrix" values="0 0 0 0 0 0 0 0 0 0 0 0 0 0 0 0 0 0 127 0" result="hardAlpha"/>
<feOffset dy="4"/>
<feGaussianBlur stdDeviation="2"/>
<feComposite in2="hardAlpha" operator="out"/>
<feColorMatrix type="matrix" values="0 0 0 0 0 0 0 0 0 0 0 0 0 0 0 0 0 0 0.1 0"/>
<feBlend mode="normal" in2="BackgroundImageFix" result="effect1_dropShadow_7_203"/>
<feBlend mode="normal" in="SourceGraphic" in2="effect1_dropShadow_7_203" result="shape"/>
</filter>
<clipPath id="clip0_7_203">
<rect width="25" height="25" fill="white" transform="translate(26 23)"/>
</clipPath>
</defs>
</svg>
