<svg width="78" height="78" viewBox="0 0 78 78" fill="none" xmlns="http://www.w3.org/2000/svg">
<g filter="url(#filter0_d_246_772)">
<circle cx="39" cy="35" r="30" fill="#94D2BD" shape-rendering="crispEdges"/>
<circle cx="39" cy="35" r="32.5" stroke="#94D2BD" stroke-opacity="0.5" stroke-width="5" shape-rendering="crispEdges"/>
</g>
<path fill-rule="evenodd" clip-rule="evenodd" d="M39 20C37.7574 20 36.75 21.0074 36.75 22.25V32.75H26.25C25.0074 32.75 24 33.7574 24 35C24 36.2426 25.0074 37.25 26.25 37.25H36.75V47.75C36.75 48.9926 37.7574 50 39 50C40.2426 50 41.25 48.9926 41.25 47.75V37.25H51.75C52.9926 37.25 54 36.2426 54 35C54 33.7574 52.9926 32.75 51.75 32.75H41.25V22.25C41.25 21.0074 40.2426 20 39 20Z" fill="white"/>
<defs>
<filter id="filter0_d_246_772" x="0" y="0" width="78" height="78" filterUnits="userSpaceOnUse" color-interpolation-filters="sRGB">
<feFlood flood-opacity="0" result="BackgroundImageFix"/>
<feColorMatrix in="SourceAlpha" type="matrix" values="0 0 0 0 0 0 0 0 0 0 0 0 0 0 0 0 0 0 127 0" result="hardAlpha"/>
<feOffset dy="4"/>
<feGaussianBlur stdDeviation="2"/>
<feComposite in2="hardAlpha" operator="out"/>
<feColorMatrix type="matrix" values="0 0 0 0 0 0 0 0 0 0 0 0 0 0 0 0 0 0 0.1 0"/>
<feBlend mode="normal" in2="BackgroundImageFix" result="effect1_dropShadow_246_772"/>
<feBlend mode="normal" in="SourceGraphic" in2="effect1_dropShadow_246_772" result="shape"/>
</filter>
</defs>
</svg>
