<svg width="78" height="78" viewBox="0 0 78 78" fill="none" xmlns="http://www.w3.org/2000/svg">
<g filter="url(#filter0_d_7_227)">
<circle cx="39" cy="35" r="30" fill="#001219" shape-rendering="crispEdges"/>
<circle cx="39" cy="35" r="32.5" stroke="#001219" stroke-opacity="0.5" stroke-width="5" shape-rendering="crispEdges"/>
</g>
<g clip-path="url(#clip0_7_227)">
<path d="M30.1667 23H33.2916C35.5928 23 37.4583 24.8655 37.4583 27.1667V30.2916C37.4583 32.5928 35.5928 34.4583 33.2916 34.4583H30.1667C27.8655 34.4583 26 32.5929 26 30.2916V27.1667C26 24.8655 27.8655 23 30.1667 23Z" fill="white"/>
<path d="M30.1667 36.5417H33.2916C35.5928 36.5417 37.4583 38.4071 37.4583 40.7083V43.8333C37.4583 46.1345 35.5928 48 33.2916 48H30.1667C27.8655 48 26 46.1345 26 43.8334V40.7084C26 38.4071 27.8655 36.5417 30.1667 36.5417Z" fill="white"/>
<path d="M43.7083 36.5417H46.8333C49.1345 36.5417 51 38.4071 51 40.7083V43.8333C51 46.1345 49.1345 48 46.8333 48H43.7083C41.4072 48 39.5417 46.1345 39.5417 43.8334V40.7084C39.5416 38.4071 41.4071 36.5417 43.7083 36.5417Z" fill="white"/>
<path d="M40.5833 30.2917H43.7083V33.4167C43.7083 33.9919 44.1747 34.4583 44.75 34.4583C45.3253 34.4583 45.7916 33.9919 45.7916 33.4167V30.2917H48.9166C49.4919 30.2917 49.9583 29.8253 49.9583 29.25C49.9583 28.6747 49.4919 28.2084 48.9166 28.2084H45.7916V25.0834C45.7916 24.5081 45.3253 24.0417 44.75 24.0417C44.1747 24.0417 43.7083 24.5081 43.7083 25.0834V28.2084H40.5833C40.008 28.2084 39.5417 28.6747 39.5417 29.25C39.5417 29.8253 40.008 30.2917 40.5833 30.2917Z" fill="white"/>
</g>
<defs>
<filter id="filter0_d_7_227" x="0" y="0" width="78" height="78" filterUnits="userSpaceOnUse" color-interpolation-filters="sRGB">
<feFlood flood-opacity="0" result="BackgroundImageFix"/>
<feColorMatrix in="SourceAlpha" type="matrix" values="0 0 0 0 0 0 0 0 0 0 0 0 0 0 0 0 0 0 127 0" result="hardAlpha"/>
<feOffset dy="4"/>
<feGaussianBlur stdDeviation="2"/>
<feComposite in2="hardAlpha" operator="out"/>
<feColorMatrix type="matrix" values="0 0 0 0 0 0 0 0 0 0 0 0 0 0 0 0 0 0 0.1 0"/>
<feBlend mode="normal" in2="BackgroundImageFix" result="effect1_dropShadow_7_227"/>
<feBlend mode="normal" in="SourceGraphic" in2="effect1_dropShadow_7_227" result="shape"/>
</filter>
<clipPath id="clip0_7_227">
<rect width="25" height="25" fill="white" transform="translate(26 23)"/>
</clipPath>
</defs>
</svg>
