<svg width="58" height="58" viewBox="0 0 58 58" fill="none" xmlns="http://www.w3.org/2000/svg">
<g filter="url(#filter0_d_33_671)">
<circle cx="29" cy="25" r="20" fill="#EE9B00" shape-rendering="crispEdges"/>
<circle cx="29" cy="25" r="22.5" stroke="#EE9B00" stroke-opacity="0.5" stroke-width="5" shape-rendering="crispEdges"/>
</g>
<g clip-path="url(#clip0_33_671)">
<path d="M21.1473 30.2771C20.6263 30.7979 20.3335 31.5043 20.3334 32.241V33.6667H21.7591C22.4957 33.6665 23.2021 33.3737 23.723 32.8528L32.9889 23.5868L30.4132 21.0111L21.1473 30.2771Z" fill="white"/>
<path d="M36.4063 17.5937C36.2371 17.4245 36.0363 17.2902 35.8153 17.1985C35.5943 17.1069 35.3573 17.0598 35.1181 17.0598C34.8788 17.0598 34.6419 17.1069 34.4208 17.1985C34.1998 17.2902 33.999 17.4245 33.8299 17.5937L31.3951 20.0292L33.9708 22.6048L36.4063 20.1701C36.5755 20.001 36.7098 19.8002 36.8014 19.5792C36.8931 19.3581 36.9402 19.1212 36.9402 18.8819C36.9402 18.6427 36.8931 18.4057 36.8014 18.1847C36.7098 17.9637 36.5755 17.7628 36.4063 17.5937V17.5937Z" fill="white"/>
</g>
<defs>
<filter id="filter0_d_33_671" x="0" y="0" width="58" height="58" filterUnits="userSpaceOnUse" color-interpolation-filters="sRGB">
<feFlood flood-opacity="0" result="BackgroundImageFix"/>
<feColorMatrix in="SourceAlpha" type="matrix" values="0 0 0 0 0 0 0 0 0 0 0 0 0 0 0 0 0 0 127 0" result="hardAlpha"/>
<feOffset dy="4"/>
<feGaussianBlur stdDeviation="2"/>
<feComposite in2="hardAlpha" operator="out"/>
<feColorMatrix type="matrix" values="0 0 0 0 0 0 0 0 0 0 0 0 0 0 0 0 0 0 0.1 0"/>
<feBlend mode="normal" in2="BackgroundImageFix" result="effect1_dropShadow_33_671"/>
<feBlend mode="normal" in="SourceGraphic" in2="effect1_dropShadow_33_671" result="shape"/>
</filter>
<clipPath id="clip0_33_671">
<rect width="16.6667" height="16.6667" fill="white" transform="translate(20.3334 17)"/>
</clipPath>
</defs>
</svg>
