<svg width="14" height="16" viewBox="0 0 14 16" fill="none" xmlns="http://www.w3.org/2000/svg">
<path d="M7.66666 13.3333C8.55039 13.3323 9.39762 12.9807 10.0225 12.3559C10.6474 11.731 10.9989 10.8837 11 10V4.162C11.001 3.81157 10.9325 3.46442 10.7984 3.14068C10.6643 2.81693 10.4672 2.52302 10.2187 2.276L8.724 0.78133C8.47697 0.532779 8.18306 0.335732 7.85932 0.20161C7.53557 0.067488 7.18842 -0.00104056 6.838 -3.66573e-06H3.66666C2.78293 0.00105491 1.9357 0.352584 1.31081 0.977476C0.685916 1.60237 0.334387 2.4496 0.333328 3.33333V10C0.334387 10.8837 0.685916 11.731 1.31081 12.3559C1.9357 12.9807 2.78293 13.3323 3.66666 13.3333H7.66666ZM1.66666 10V3.33333C1.66666 2.8029 1.87738 2.29419 2.25245 1.91912C2.62752 1.54404 3.13623 1.33333 3.66666 1.33333C3.66666 1.33333 6.946 1.34266 7 1.34933V2.66666C7 3.02028 7.14047 3.35942 7.39052 3.60947C7.64057 3.85952 7.97971 4 8.33333 4H9.65066C9.65733 4.054 9.66666 10 9.66666 10C9.66666 10.5304 9.45595 11.0391 9.08088 11.4142C8.7058 11.7893 8.19709 12 7.66666 12H3.66666C3.13623 12 2.62752 11.7893 2.25245 11.4142C1.87738 11.0391 1.66666 10.5304 1.66666 10ZM13.6667 5.33333V12.6667C13.6656 13.5504 13.3141 14.3976 12.6892 15.0225C12.0643 15.6474 11.2171 15.9989 10.3333 16H4.33333C4.15652 16 3.98695 15.9298 3.86192 15.8047C3.7369 15.6797 3.66666 15.5101 3.66666 15.3333C3.66666 15.1565 3.7369 14.9869 3.86192 14.8619C3.98695 14.7369 4.15652 14.6667 4.33333 14.6667H10.3333C10.8638 14.6667 11.3725 14.4559 11.7475 14.0809C12.1226 13.7058 12.3333 13.1971 12.3333 12.6667V5.33333C12.3333 5.15652 12.4036 4.98695 12.5286 4.86193C12.6536 4.7369 12.8232 4.66666 13 4.66666C13.1768 4.66666 13.3464 4.7369 13.4714 4.86193C13.5964 4.98695 13.6667 5.15652 13.6667 5.33333Z" fill="#001219"/>
</svg>
