<svg width="59" height="24" viewBox="0 0 59 24" fill="none" xmlns="http://www.w3.org/2000/svg">
<rect width="59" height="24" rx="8" fill="#001219"/>
<path d="M16.244 10.504L15.428 12.58H17.024L16.808 13.78H14.96L14.096 16H12.788L13.652 13.78H11.3L10.436 16H9.128L9.992 13.78H8.144L8.36 12.58H10.46L11.276 10.504H9.428L9.644 9.304H11.744L12.596 7.12H13.904L13.052 9.304H15.404L16.256 7.12H17.564L16.712 9.304H18.308L18.092 10.504H16.244ZM14.936 10.504H12.584L11.768 12.58H14.12L14.936 10.504ZM21.7648 16.084C21.2528 16.084 20.7928 16.004 20.3848 15.844C19.9768 15.676 19.6528 15.436 19.4128 15.124C19.1728 14.804 19.0528 14.428 19.0528 13.996C19.0528 13.94 19.0608 13.84 19.0768 13.696H20.4328C20.4008 14.064 20.5088 14.372 20.7568 14.62C21.0048 14.86 21.3608 14.98 21.8248 14.98C22.3208 14.98 22.7088 14.88 22.9888 14.68C23.2688 14.472 23.4088 14.176 23.4088 13.792C23.4088 13.56 23.3368 13.364 23.1928 13.204C23.0568 13.036 22.8808 12.896 22.6648 12.784C22.4568 12.672 22.1648 12.54 21.7888 12.388C21.2928 12.18 20.8968 11.992 20.6008 11.824C20.3048 11.656 20.0488 11.424 19.8328 11.128C19.6248 10.832 19.5208 10.46 19.5208 10.012C19.5208 9.516 19.6488 9.084 19.9048 8.716C20.1608 8.34 20.5128 8.052 20.9608 7.852C21.4168 7.652 21.9288 7.552 22.4968 7.552C23.0648 7.552 23.5528 7.648 23.9608 7.84C24.3768 8.024 24.6888 8.288 24.8968 8.632C25.1128 8.968 25.2088 9.364 25.1848 9.82H23.7448C23.7768 9.492 23.6768 9.22 23.4448 9.004C23.2128 8.78 22.8768 8.668 22.4368 8.668C21.9728 8.668 21.6008 8.776 21.3208 8.992C21.0488 9.2 20.9128 9.484 20.9128 9.844C20.9128 10.068 20.9808 10.264 21.1168 10.432C21.2608 10.592 21.4408 10.732 21.6568 10.852C21.8728 10.964 22.1648 11.1 22.5328 11.26C23.0288 11.484 23.4248 11.684 23.7208 11.86C24.0248 12.036 24.2848 12.276 24.5008 12.58C24.7168 12.876 24.8248 13.244 24.8248 13.684C24.8248 14.148 24.6968 14.564 24.4408 14.932C24.1848 15.292 23.8248 15.576 23.3608 15.784C22.8968 15.984 22.3648 16.084 21.7648 16.084ZM28.2884 10.36C28.5764 10.056 28.9364 9.8 29.3684 9.592C29.8084 9.384 30.2804 9.28 30.7844 9.28C31.2884 9.28 31.7364 9.388 32.1284 9.604C32.5204 9.82 32.8244 10.128 33.0404 10.528C33.2564 10.928 33.3644 11.396 33.3644 11.932C33.3644 12.164 33.3404 12.408 33.2924 12.664C33.1724 13.328 32.9284 13.924 32.5604 14.452C32.2004 14.972 31.7564 15.38 31.2284 15.676C30.7084 15.964 30.1604 16.108 29.5844 16.108C29.0804 16.108 28.6484 16.008 28.2884 15.808C27.9364 15.6 27.6604 15.344 27.4604 15.04L26.7404 19.144H25.3724L27.0884 9.388H28.4564L28.2884 10.36ZM31.9004 12.664C31.9324 12.512 31.9484 12.348 31.9484 12.172C31.9484 11.636 31.7884 11.22 31.4684 10.924C31.1564 10.62 30.7604 10.468 30.2804 10.468C29.9364 10.468 29.5924 10.556 29.2484 10.732C28.9124 10.908 28.6204 11.164 28.3724 11.5C28.1244 11.836 27.9604 12.232 27.8804 12.688C27.8484 12.84 27.8324 13.004 27.8324 13.18C27.8324 13.716 27.9884 14.14 28.3004 14.452C28.6204 14.764 29.0164 14.92 29.4884 14.92C29.8404 14.92 30.1844 14.832 30.5204 14.656C30.8644 14.472 31.1604 14.208 31.4084 13.864C31.6564 13.52 31.8204 13.12 31.9004 12.664ZM36.9492 16.108C36.3893 16.108 35.8973 15.992 35.4733 15.76C35.0493 15.528 34.7173 15.2 34.4773 14.776C34.2453 14.352 34.1293 13.868 34.1293 13.324C34.1293 12.58 34.3013 11.9 34.6453 11.284C34.9973 10.668 35.4773 10.18 36.0853 9.82C36.7013 9.46 37.3853 9.28 38.1373 9.28C38.6973 9.28 39.1933 9.4 39.6253 9.64C40.0573 9.872 40.3933 10.2 40.6333 10.624C40.8813 11.04 41.0053 11.524 41.0053 12.076C41.0053 12.82 40.8253 13.5 40.4653 14.116C40.1053 14.732 39.6173 15.22 39.0013 15.58C38.3853 15.932 37.7013 16.108 36.9492 16.108ZM37.1173 14.956C37.5733 14.956 37.9893 14.828 38.3653 14.572C38.7493 14.308 39.0493 13.964 39.2653 13.54C39.4813 13.108 39.5893 12.648 39.5893 12.16C39.5893 11.608 39.4333 11.184 39.1213 10.888C38.8093 10.584 38.4173 10.432 37.9453 10.432C37.4813 10.432 37.0653 10.564 36.6973 10.828C36.3373 11.084 36.0533 11.432 35.8453 11.872C35.6453 12.304 35.5452 12.768 35.5452 13.264C35.5452 13.8 35.6893 14.216 35.9773 14.512C36.2733 14.808 36.6533 14.956 37.1173 14.956ZM44.0376 10.552C44.3096 10.152 44.6296 9.84 44.9976 9.616C45.3736 9.392 45.7896 9.28 46.2456 9.28L45.9936 10.696H45.6456C45.1176 10.696 44.6936 10.828 44.3736 11.092C44.0536 11.356 43.8296 11.812 43.7016 12.46L43.0776 16H41.7096L42.8736 9.388H44.2416L44.0376 10.552ZM48.2351 14.164C48.2191 14.276 48.2111 14.348 48.2111 14.38C48.2111 14.548 48.2631 14.672 48.3671 14.752C48.4711 14.824 48.6431 14.86 48.8831 14.86H49.7231L49.5191 16H48.4391C47.9111 16 47.5071 15.896 47.2271 15.688C46.9471 15.472 46.8071 15.132 46.8071 14.668C46.8071 14.492 46.8231 14.324 46.8551 14.164L47.5031 10.504H46.7231L46.9151 9.388H47.7071L47.9951 7.744H49.3751L49.0871 9.388H50.6831L50.4911 10.504H48.8831L48.2351 14.164Z" fill="white"/>
</svg>
