<svg width="5" height="25" viewBox="0 0 5 25" fill="none" xmlns="http://www.w3.org/2000/svg">
<rect width="600" height="1024" transform="translate(-388 -38)" fill="white"/>
<g clip-path="url(#clip0_1_50)">
<path d="M2.50008 4.16667C3.65067 4.16667 4.58342 3.23393 4.58342 2.08333C4.58342 0.93274 3.65067 0 2.50008 0C1.34949 0 0.416748 0.93274 0.416748 2.08333C0.416748 3.23393 1.34949 4.16667 2.50008 4.16667Z" fill="black"/>
<path d="M2.50008 14.5833C3.65067 14.5833 4.58342 13.6506 4.58342 12.5C4.58342 11.3494 3.65067 10.4167 2.50008 10.4167C1.34949 10.4167 0.416748 11.3494 0.416748 12.5C0.416748 13.6506 1.34949 14.5833 2.50008 14.5833Z" fill="black"/>
<path d="M2.50008 25C3.65067 25 4.58342 24.0673 4.58342 22.9167C4.58342 21.7661 3.65067 20.8333 2.50008 20.8333C1.34949 20.8333 0.416748 21.7661 0.416748 22.9167C0.416748 24.0673 1.34949 25 2.50008 25Z" fill="black"/>
</g>
<defs>
<clipPath id="clip0_1_50">
<rect width="25" height="25" fill="white" transform="translate(-10)"/>
</clipPath>
</defs>
</svg>
