<svg width="25" height="25" viewBox="0 0 25 25" fill="none" xmlns="http://www.w3.org/2000/svg">
<g clip-path="url(#clip0_19_798)">
<path d="M23.9583 11.4583H1.04167C0.46637 11.4583 0 11.9247 0 12.5C0 13.0753 0.46637 13.5417 1.04167 13.5417H23.9583C24.5336 13.5417 25 13.0753 25 12.5C25 11.9247 24.5336 11.4583 23.9583 11.4583Z" fill="black"/>
<path d="M23.9583 4.16666H1.04167C0.46637 4.16666 0 4.63303 0 5.20832C0 5.78362 0.46637 6.24999 1.04167 6.24999H23.9583C24.5336 6.24999 25 5.78362 25 5.20832C25 4.63303 24.5336 4.16666 23.9583 4.16666Z" fill="black"/>
<path d="M23.9583 18.75H1.04167C0.46637 18.75 0 19.2164 0 19.7917C0 20.367 0.46637 20.8333 1.04167 20.8333H23.9583C24.5336 20.8333 25 20.367 25 19.7917C25 19.2164 24.5336 18.75 23.9583 18.75Z" fill="black"/>
</g>
<defs>
<clipPath id="clip0_19_798">
<rect width="25" height="25" fill="white"/>
</clipPath>
</defs>
</svg>
