<svg width="25" height="32" viewBox="0 0 25 32" fill="none" xmlns="http://www.w3.org/2000/svg">
<path d="M6.67707 11.7188H18.3229C18.5289 11.7198 18.73 11.7972 18.9009 11.9412C19.0717 12.0852 19.2045 12.2892 19.2826 12.5275C19.3606 12.7659 19.3804 13.0278 19.3393 13.2801C19.2983 13.5325 19.1983 13.764 19.0521 13.9453L13.2396 21.2109C13.1427 21.333 13.0275 21.4298 12.9006 21.496C12.7737 21.5621 12.6375 21.5961 12.5 21.5961C12.3625 21.5961 12.2263 21.5621 12.0994 21.496C11.9724 21.4298 11.8572 21.333 11.7604 21.2109L5.9479 13.9453C5.80163 13.764 5.70166 13.5325 5.66063 13.2801C5.61961 13.0278 5.63937 12.7659 5.71742 12.5275C5.79546 12.2892 5.92829 12.0852 6.09911 11.9412C6.26993 11.7972 6.47106 11.7198 6.67707 11.7188Z" fill="black"/>
</svg>
