<svg width="25" height="25" viewBox="0 0 25 25" fill="none" xmlns="http://www.w3.org/2000/svg">
<g clip-path="url(#clip0_7_233)">
<path d="M25 12.5C25 12.7763 24.8903 13.0412 24.6949 13.2366C24.4996 13.4319 24.2346 13.5417 23.9583 13.5417C23.6821 13.5417 23.4171 13.4319 23.2218 13.2366C23.0264 13.0412 22.9167 12.7763 22.9167 12.5C22.9136 9.73826 21.8152 7.0905 19.8623 5.13765C17.9095 3.18481 15.2617 2.08637 12.5 2.08333C12.2237 2.08333 11.9588 1.97359 11.7634 1.77824C11.5681 1.58289 11.4583 1.31793 11.4583 1.04167C11.4583 0.765399 11.5681 0.500448 11.7634 0.305097C11.9588 0.109747 12.2237 0 12.5 0C15.8141 0.00358446 18.9914 1.3217 21.3349 3.66512C23.6783 6.00855 24.9964 9.18589 25 12.5ZM16.6667 13.5417C16.9429 13.5417 17.2079 13.4319 17.4032 13.2366C17.5986 13.0412 17.7083 12.7763 17.7083 12.5C17.7083 12.2237 17.5986 11.9588 17.4032 11.7634C17.2079 11.5681 16.9429 11.4583 16.6667 11.4583H14.2948C14.1132 11.1463 13.8537 10.8868 13.5417 10.7052V7.29167C13.5417 7.0154 13.4319 6.75045 13.2366 6.5551C13.0412 6.35975 12.7763 6.25 12.5 6.25C12.2237 6.25 11.9588 6.35975 11.7634 6.5551C11.5681 6.75045 11.4583 7.0154 11.4583 7.29167V10.7052C11.1821 10.8643 10.9461 11.0848 10.7688 11.3497C10.5914 11.6147 10.4774 11.9169 10.4356 12.2329C10.3938 12.549 10.4253 12.8704 10.5277 13.1723C10.6301 13.4742 10.8006 13.7485 11.0261 13.9739C11.2515 14.1994 11.5258 14.3699 11.8277 14.4723C12.1296 14.5747 12.451 14.6062 12.7671 14.5644C13.0831 14.5226 13.3853 14.4086 13.6503 14.2312C13.9152 14.0539 14.1357 13.8179 14.2948 13.5417H16.6667ZM1.90313 7.06667C1.6971 7.06667 1.49571 7.12776 1.32441 7.24222C1.15311 7.35668 1.01959 7.51936 0.940751 7.7097C0.86191 7.90004 0.841281 8.10949 0.881474 8.31155C0.921667 8.51362 1.02088 8.69922 1.16656 8.8449C1.31224 8.99058 1.49784 9.08979 1.69991 9.12998C1.90197 9.17018 2.11141 9.14955 2.30175 9.07071C2.49209 8.99187 2.65478 8.85835 2.76924 8.68705C2.8837 8.51575 2.94479 8.31435 2.94479 8.10833C2.94479 7.83207 2.83505 7.56711 2.63969 7.37176C2.44434 7.17641 2.17939 7.06667 1.90313 7.06667ZM2.08333 12.5C2.08333 12.294 2.02224 12.0926 1.90778 11.9213C1.79332 11.75 1.63064 11.6165 1.4403 11.5376C1.24996 11.4588 1.04051 11.4382 0.838448 11.4783C0.636384 11.5185 0.450777 11.6178 0.305098 11.7634C0.159418 11.9091 0.0602087 12.0947 0.0200158 12.2968C-0.0201771 12.4988 0.000451334 12.7083 0.0792926 12.8986C0.158134 13.089 0.291647 13.2517 0.462948 13.3661C0.634249 13.4806 0.835645 13.5417 1.04167 13.5417C1.31793 13.5417 1.58289 13.4319 1.77824 13.2366C1.97359 13.0412 2.08333 12.7763 2.08333 12.5ZM12.5 22.9167C12.294 22.9167 12.0926 22.9778 11.9213 23.0922C11.75 23.2067 11.6165 23.3694 11.5376 23.5597C11.4588 23.75 11.4382 23.9595 11.4783 24.1616C11.5185 24.3636 11.6178 24.5492 11.7634 24.6949C11.9091 24.8406 12.0947 24.9398 12.2968 24.98C12.4988 25.0202 12.7083 24.9995 12.8986 24.9207C13.089 24.8419 13.2517 24.7084 13.3661 24.5371C13.4806 24.3658 13.5417 24.1644 13.5417 23.9583C13.5417 23.6821 13.4319 23.4171 13.2366 23.2218C13.0412 23.0264 12.7763 22.9167 12.5 22.9167ZM4.39688 3.34062C4.19085 3.34062 3.98946 3.40172 3.81816 3.51618C3.64686 3.63064 3.51334 3.79332 3.4345 3.98366C3.35566 4.174 3.33503 4.38345 3.37522 4.58551C3.41542 4.78757 3.51463 4.97318 3.66031 5.11886C3.80599 5.26454 3.99159 5.36375 4.19366 5.40394C4.39572 5.44414 4.60516 5.42351 4.7955 5.34467C4.98584 5.26582 5.14853 5.13231 5.26299 4.96101C5.37745 4.78971 5.43854 4.58831 5.43854 4.38229C5.43854 4.10602 5.32879 3.84107 5.13344 3.64572C4.93809 3.45037 4.67314 3.34062 4.39688 3.34062ZM8.10312 0.876042C7.8971 0.876042 7.69571 0.937134 7.52441 1.05159C7.3531 1.16605 7.21959 1.32874 7.14075 1.51908C7.06191 1.70942 7.04128 1.91886 7.08147 2.12093C7.12167 2.32299 7.22088 2.5086 7.36656 2.65428C7.51224 2.79996 7.69784 2.89917 7.89991 2.93936C8.10197 2.97955 8.31141 2.95892 8.50175 2.88008C8.69209 2.80124 8.85478 2.66773 8.96924 2.49643C9.0837 2.32513 9.14479 2.12373 9.14479 1.91771C9.14479 1.64144 9.03504 1.37649 8.83969 1.18114C8.64434 0.985788 8.37939 0.876042 8.10312 0.876042ZM1.90313 15.85C1.6971 15.85 1.49571 15.9111 1.32441 16.0256C1.15311 16.14 1.01959 16.3027 0.940751 16.493C0.86191 16.6834 0.841281 16.8928 0.881474 17.0949C0.921667 17.2969 1.02088 17.4826 1.16656 17.6282C1.31224 17.7739 1.49784 17.8731 1.69991 17.9133C1.90197 17.9535 2.11141 17.9329 2.30175 17.854C2.49209 17.7752 2.65478 17.6417 2.76924 17.4704C2.8837 17.2991 2.94479 17.0977 2.94479 16.8917C2.94479 16.6154 2.83505 16.3504 2.63969 16.1551C2.44434 15.9597 2.17939 15.85 1.90313 15.85ZM4.39688 19.576C4.19085 19.576 3.98946 19.6371 3.81816 19.7516C3.64686 19.8661 3.51334 20.0287 3.4345 20.2191C3.35566 20.4094 3.33503 20.6189 3.37522 20.8209C3.41542 21.023 3.51463 21.2086 3.66031 21.3543C3.80599 21.5 3.99159 21.5992 4.19366 21.6394C4.39572 21.6796 4.60516 21.6589 4.7955 21.5801C4.98584 21.5012 5.14853 21.3677 5.26299 21.1964C5.37745 21.0251 5.43854 20.8237 5.43854 20.6177C5.43854 20.3414 5.32879 20.0765 5.13344 19.8811C4.93809 19.6858 4.67314 19.576 4.39688 19.576ZM8.10312 22.0406C7.8971 22.0406 7.69571 22.1017 7.52441 22.2162C7.3531 22.3306 7.21959 22.4933 7.14075 22.6837C7.06191 22.874 7.04128 23.0834 7.08147 23.2855C7.12167 23.4876 7.22088 23.6732 7.36656 23.8189C7.51224 23.9645 7.69784 24.0637 7.89991 24.1039C8.10197 24.1441 8.31141 24.1235 8.50175 24.0447C8.69209 23.9658 8.85478 23.8323 8.96924 23.661C9.0837 23.4897 9.14479 23.2883 9.14479 23.0823C9.14479 22.806 9.03504 22.5411 8.83969 22.3457C8.64434 22.1504 8.37939 22.0406 8.10312 22.0406ZM23.0969 15.85C22.8909 15.85 22.6895 15.9111 22.5182 16.0256C22.3469 16.14 22.2133 16.3027 22.1345 16.493C22.0557 16.6834 22.035 16.8928 22.0752 17.0949C22.1154 17.2969 22.2146 17.4826 22.3603 17.6282C22.506 17.7739 22.6916 17.8731 22.8937 17.9133C23.0957 17.9535 23.3052 17.9329 23.4955 17.854C23.6858 17.7752 23.8485 17.6417 23.963 17.4704C24.0774 17.2991 24.1385 17.0977 24.1385 16.8917C24.1385 16.6154 24.0288 16.3504 23.8334 16.1551C23.6381 15.9597 23.3731 15.85 23.0969 15.85ZM20.6031 19.576C20.3971 19.576 20.1957 19.6371 20.0244 19.7516C19.8531 19.8661 19.7196 20.0287 19.6407 20.2191C19.5619 20.4094 19.5413 20.6189 19.5815 20.8209C19.6217 21.023 19.7209 21.2086 19.8666 21.3543C20.0122 21.5 20.1978 21.5992 20.3999 21.6394C20.602 21.6796 20.8114 21.6589 21.0018 21.5801C21.1921 21.5012 21.3548 21.3677 21.4692 21.1964C21.5837 21.0251 21.6448 20.8237 21.6448 20.6177C21.6448 20.3414 21.535 20.0765 21.3397 19.8811C21.1443 19.6858 20.8794 19.576 20.6031 19.576ZM16.8969 22.0406C16.6909 22.0406 16.4895 22.1017 16.3182 22.2162C16.1469 22.3306 16.0133 22.4933 15.9345 22.6837C15.8557 22.874 15.835 23.0834 15.8752 23.2855C15.9154 23.4876 16.0146 23.6732 16.1603 23.8189C16.306 23.9645 16.4916 24.0637 16.6937 24.1039C16.8957 24.1441 17.1052 24.1235 17.2955 24.0447C17.4858 23.9658 17.6485 23.8323 17.763 23.661C17.8774 23.4897 17.9385 23.2883 17.9385 23.0823C17.9385 22.806 17.8288 22.5411 17.6334 22.3457C17.4381 22.1504 17.1731 22.0406 16.8969 22.0406Z" fill="#AE2012"/>
</g>
<defs>
<clipPath id="clip0_7_233">
<rect width="25" height="25" fill="white"/>
</clipPath>
</defs>
</svg>
