<svg width="68" height="24" viewBox="0 0 68 24" fill="none" xmlns="http://www.w3.org/2000/svg">
<rect width="68" height="24" rx="8" fill="#001219"/>
<path d="M16.244 10.504L15.428 12.58H17.024L16.808 13.78H14.96L14.096 16H12.788L13.652 13.78H11.3L10.436 16H9.128L9.992 13.78H8.144L8.36 12.58H10.46L11.276 10.504H9.428L9.644 9.304H11.744L12.596 7.12H13.904L13.052 9.304H15.404L16.256 7.12H17.564L16.712 9.304H18.308L18.092 10.504H16.244ZM14.936 10.504H12.584L11.768 12.58H14.12L14.936 10.504ZM25.6048 7.66L25.4128 8.728H23.1928L21.9088 16H20.5408L21.8248 8.728H19.5928L19.7848 7.66H25.6048ZM27.8423 10.552C28.1143 10.152 28.4343 9.84 28.8023 9.616C29.1783 9.392 29.5943 9.28 30.0503 9.28L29.7983 10.696H29.4503C28.9223 10.696 28.4983 10.828 28.1783 11.092C27.8583 11.356 27.6343 11.812 27.5063 12.46L26.8823 16H25.5143L26.6783 9.388H28.0463L27.8423 10.552ZM30.2518 12.664C30.3718 12 30.6118 11.412 30.9718 10.9C31.3398 10.388 31.7878 9.992 32.3158 9.712C32.8438 9.424 33.3958 9.28 33.9718 9.28C34.4918 9.28 34.9278 9.384 35.2798 9.592C35.6318 9.792 35.8958 10.044 36.0718 10.348L36.2398 9.388H37.6198L36.4557 16H35.0758L35.2558 15.016C34.9678 15.328 34.6038 15.588 34.1638 15.796C33.7318 16.004 33.2598 16.108 32.7478 16.108C32.2518 16.108 31.8078 15.996 31.4158 15.772C31.0318 15.548 30.7278 15.232 30.5038 14.824C30.2878 14.408 30.1798 13.932 30.1798 13.396C30.1798 13.156 30.2038 12.912 30.2518 12.664ZM35.6638 12.688C35.6958 12.536 35.7118 12.372 35.7118 12.196C35.7118 11.66 35.5518 11.24 35.2318 10.936C34.9198 10.624 34.5278 10.468 34.0558 10.468C33.7038 10.468 33.3598 10.556 33.0238 10.732C32.6878 10.9 32.3958 11.152 32.1478 11.488C31.8998 11.816 31.7358 12.208 31.6558 12.664C31.6238 12.816 31.6077 12.98 31.6077 13.156C31.6077 13.7 31.7638 14.132 32.0758 14.452C32.3958 14.764 32.7918 14.92 33.2638 14.92C33.6158 14.92 33.9598 14.832 34.2958 14.656C34.6318 14.48 34.9238 14.224 35.1718 13.888C35.4198 13.544 35.5838 13.144 35.6638 12.688ZM41.0246 14.776L43.8446 9.388H45.3206L41.6366 16H39.9806L38.6366 9.388H40.1006L41.0246 14.776ZM45.2986 12.664C45.4186 12 45.6586 11.412 46.0186 10.9C46.3866 10.388 46.8346 9.992 47.3626 9.712C47.8906 9.424 48.4426 9.28 49.0186 9.28C49.5386 9.28 49.9746 9.384 50.3266 9.592C50.6786 9.792 50.9426 10.044 51.1186 10.348L51.2866 9.388H52.6666L51.5026 16H50.1226L50.3026 15.016C50.0146 15.328 49.6506 15.588 49.2106 15.796C48.7786 16.004 48.3066 16.108 47.7946 16.108C47.2986 16.108 46.8546 15.996 46.4626 15.772C46.0786 15.548 45.7746 15.232 45.5506 14.824C45.3346 14.408 45.2266 13.932 45.2266 13.396C45.2266 13.156 45.2506 12.912 45.2986 12.664ZM50.7106 12.688C50.7426 12.536 50.7586 12.372 50.7586 12.196C50.7586 11.66 50.5986 11.24 50.2786 10.936C49.9666 10.624 49.5746 10.468 49.1026 10.468C48.7506 10.468 48.4066 10.556 48.0706 10.732C47.7346 10.9 47.4426 11.152 47.1946 11.488C46.9466 11.816 46.7826 12.208 46.7026 12.664C46.6706 12.816 46.6546 12.98 46.6546 13.156C46.6546 13.7 46.8106 14.132 47.1226 14.452C47.4426 14.764 47.8386 14.92 48.3106 14.92C48.6626 14.92 49.0066 14.832 49.3426 14.656C49.6786 14.48 49.9706 14.224 50.2186 13.888C50.4666 13.544 50.6306 13.144 50.7106 12.688ZM55.3154 8.512C55.0994 8.512 54.9234 8.444 54.7874 8.308C54.6514 8.172 54.5834 8 54.5834 7.792C54.5834 7.512 54.6874 7.272 54.8954 7.072C55.1114 6.864 55.3554 6.76 55.6274 6.76C55.8434 6.76 56.0154 6.828 56.1434 6.964C56.2794 7.1 56.3474 7.272 56.3474 7.48C56.3474 7.76 56.2434 8.004 56.0354 8.212C55.8274 8.412 55.5874 8.512 55.3154 8.512ZM55.8314 9.388L54.6674 16H53.2994L54.4634 9.388H55.8314ZM59.4035 7.12L57.8315 16H56.4635L58.0355 7.12H59.4035Z" fill="white"/>
</svg>
