<svg width="67" height="24" viewBox="0 0 67 24" fill="none" xmlns="http://www.w3.org/2000/svg">
<rect width="67" height="24" rx="8" fill="#001219"/>
<path d="M16.244 10.504L15.428 12.58H17.024L16.808 13.78H14.96L14.096 16H12.788L13.652 13.78H11.3L10.436 16H9.128L9.992 13.78H8.144L8.36 12.58H10.46L11.276 10.504H9.428L9.644 9.304H11.744L12.596 7.12H13.904L13.052 9.304H15.404L16.256 7.12H17.564L16.712 9.304H18.308L18.092 10.504H16.244ZM14.936 10.504H12.584L11.768 12.58H14.12L14.936 10.504ZM19.0288 11.812C19.1728 10.996 19.4888 10.264 19.9768 9.616C20.4728 8.968 21.0768 8.464 21.7888 8.104C22.5088 7.736 23.2568 7.552 24.0328 7.552C24.9208 7.552 25.6728 7.772 26.2888 8.212C26.9128 8.644 27.3088 9.26 27.4768 10.06H25.8328C25.6808 9.644 25.4328 9.332 25.0888 9.124C24.7448 8.908 24.3208 8.8 23.8168 8.8C23.2648 8.8 22.7488 8.924 22.2688 9.172C21.7968 9.42 21.3968 9.772 21.0688 10.228C20.7488 10.684 20.5368 11.212 20.4328 11.812C20.3928 12.076 20.3728 12.3 20.3728 12.484C20.3728 13.204 20.5888 13.776 21.0208 14.2C21.4528 14.624 22.0288 14.836 22.7488 14.836C23.2528 14.836 23.7168 14.732 24.1408 14.524C24.5648 14.308 24.9208 13.992 25.2088 13.576H26.8528C26.3968 14.376 25.7848 14.992 25.0168 15.424C24.2488 15.856 23.4208 16.072 22.5328 16.072C21.8448 16.072 21.2288 15.928 20.6848 15.64C20.1408 15.352 19.7168 14.948 19.4128 14.428C19.1088 13.908 18.9568 13.308 18.9568 12.628C18.9568 12.372 18.9808 12.1 19.0288 11.812ZM28.1541 12.664C28.2741 12 28.5141 11.412 28.8741 10.9C29.2421 10.388 29.6901 9.992 30.2181 9.712C30.7461 9.424 31.2981 9.28 31.8741 9.28C32.3941 9.28 32.8301 9.384 33.1821 9.592C33.5341 9.792 33.7981 10.044 33.9741 10.348L34.1421 9.388H35.5221L34.3581 16H32.9781L33.1581 15.016C32.8701 15.328 32.5061 15.588 32.0661 15.796C31.6341 16.004 31.1621 16.108 30.6501 16.108C30.1541 16.108 29.7101 15.996 29.3181 15.772C28.9341 15.548 28.6301 15.232 28.4061 14.824C28.1901 14.408 28.0821 13.932 28.0821 13.396C28.0821 13.156 28.1061 12.912 28.1541 12.664ZM33.5661 12.688C33.5981 12.536 33.6141 12.372 33.6141 12.196C33.6141 11.66 33.4541 11.24 33.1341 10.936C32.8221 10.624 32.4301 10.468 31.9581 10.468C31.6061 10.468 31.2621 10.556 30.9261 10.732C30.5901 10.9 30.2981 11.152 30.0501 11.488C29.8021 11.816 29.6381 12.208 29.5581 12.664C29.5261 12.816 29.5101 12.98 29.5101 13.156C29.5101 13.7 29.6661 14.132 29.9781 14.452C30.2981 14.764 30.6941 14.92 31.1661 14.92C31.5181 14.92 31.8621 14.832 32.1981 14.656C32.5341 14.48 32.8261 14.224 33.0741 13.888C33.3221 13.544 33.4861 13.144 33.5661 12.688ZM39.0949 7.12L37.5229 16H36.1549L37.7269 7.12H39.0949ZM48.511 9.28C49.207 9.28 49.763 9.468 50.179 9.844C50.595 10.22 50.803 10.752 50.803 11.44C50.803 11.624 50.783 11.844 50.743 12.1L50.047 16H48.691L49.351 12.304C49.383 12.08 49.399 11.92 49.399 11.824C49.399 11.384 49.275 11.048 49.027 10.816C48.787 10.584 48.451 10.468 48.019 10.468C47.499 10.468 47.059 10.628 46.699 10.948C46.347 11.26 46.123 11.712 46.027 12.304L45.367 16H44.011L44.671 12.304C44.703 12.08 44.719 11.92 44.719 11.824C44.719 11.384 44.595 11.048 44.347 10.816C44.107 10.584 43.771 10.468 43.339 10.468C42.819 10.468 42.379 10.628 42.019 10.948C41.667 11.26 41.443 11.712 41.347 12.304V12.268L40.687 16H39.319L40.483 9.388H41.851L41.719 10.156C41.983 9.884 42.299 9.672 42.667 9.52C43.043 9.36 43.431 9.28 43.831 9.28C44.359 9.28 44.811 9.392 45.187 9.616C45.571 9.84 45.839 10.164 45.991 10.588C46.255 10.188 46.619 9.872 47.083 9.64C47.547 9.4 48.023 9.28 48.511 9.28ZM55.8197 9.28C56.6437 9.28 57.2997 9.512 57.7877 9.976C58.2837 10.44 58.5317 11.064 58.5317 11.848C58.5317 12.032 58.5117 12.252 58.4717 12.508C58.4397 12.684 58.3837 12.9 58.3037 13.156H53.2517C53.2437 13.212 53.2397 13.296 53.2397 13.408C53.2397 13.88 53.3837 14.256 53.6717 14.536C53.9677 14.816 54.3517 14.956 54.8237 14.956C55.5677 14.956 56.1397 14.648 56.5397 14.032H58.0157C57.7117 14.64 57.2637 15.14 56.6717 15.532C56.0797 15.916 55.3957 16.108 54.6197 16.108C54.0677 16.108 53.5837 16 53.1677 15.784C52.7517 15.568 52.4277 15.26 52.1957 14.86C51.9637 14.452 51.8477 13.976 51.8477 13.432C51.8477 13.2 51.8717 12.952 51.9197 12.688C52.0397 12.008 52.2837 11.412 52.6517 10.9C53.0197 10.38 53.4757 9.98 54.0197 9.7C54.5717 9.42 55.1717 9.28 55.8197 9.28ZM57.1037 12.172C57.1197 12.028 57.1277 11.924 57.1277 11.86C57.1277 11.42 56.9797 11.072 56.6837 10.816C56.3957 10.56 56.0197 10.432 55.5557 10.432C55.0677 10.432 54.6277 10.588 54.2357 10.9C53.8437 11.212 53.5757 11.636 53.4317 12.172H57.1037Z" fill="white"/>
</svg>
