<svg width="72" height="24" viewBox="0 0 72 24" fill="none" xmlns="http://www.w3.org/2000/svg">
<rect width="72" height="24" rx="8" fill="#001219"/>
<path d="M16.244 10.504L15.428 12.58H17.024L16.808 13.78H14.96L14.096 16H12.788L13.652 13.78H11.3L10.436 16H9.128L9.992 13.78H8.144L8.36 12.58H10.46L11.276 10.504H9.428L9.644 9.304H11.744L12.596 7.12H13.904L13.052 9.304H15.404L16.256 7.12H17.564L16.712 9.304H18.308L18.092 10.504H16.244ZM14.936 10.504H12.584L11.768 12.58H14.12L14.936 10.504ZM19.0288 11.812C19.1728 10.996 19.4888 10.264 19.9768 9.616C20.4728 8.968 21.0768 8.464 21.7888 8.104C22.5088 7.736 23.2568 7.552 24.0328 7.552C24.9208 7.552 25.6728 7.772 26.2888 8.212C26.9128 8.644 27.3088 9.26 27.4768 10.06H25.8328C25.6808 9.644 25.4328 9.332 25.0888 9.124C24.7448 8.908 24.3208 8.8 23.8168 8.8C23.2648 8.8 22.7488 8.924 22.2688 9.172C21.7968 9.42 21.3968 9.772 21.0688 10.228C20.7488 10.684 20.5368 11.212 20.4328 11.812C20.3928 12.076 20.3728 12.3 20.3728 12.484C20.3728 13.204 20.5888 13.776 21.0208 14.2C21.4528 14.624 22.0288 14.836 22.7488 14.836C23.2528 14.836 23.7168 14.732 24.1408 14.524C24.5648 14.308 24.9208 13.992 25.2088 13.576H26.8528C26.3968 14.376 25.7848 14.992 25.0168 15.424C24.2488 15.856 23.4208 16.072 22.5328 16.072C21.8448 16.072 21.2288 15.928 20.6848 15.64C20.1408 15.352 19.7168 14.948 19.4128 14.428C19.1088 13.908 18.9568 13.308 18.9568 12.628C18.9568 12.372 18.9808 12.1 19.0288 11.812ZM35.1741 9.388L34.0101 16H32.6421L32.7741 15.22C32.5101 15.492 32.1901 15.708 31.8141 15.868C31.4461 16.02 31.0661 16.096 30.6741 16.096C29.9781 16.096 29.4221 15.908 29.0061 15.532C28.5901 15.156 28.3821 14.624 28.3821 13.936C28.3821 13.752 28.4021 13.532 28.4421 13.276L29.1261 9.388H30.4821L29.8341 13.072C29.8021 13.296 29.7861 13.456 29.7861 13.552C29.7861 13.992 29.9061 14.328 30.1461 14.56C30.3941 14.792 30.7341 14.908 31.1661 14.908C31.6701 14.908 32.0981 14.76 32.4501 14.464C32.8021 14.16 33.0341 13.724 33.1461 13.156L33.8061 9.388H35.1741ZM37.8311 8.512C37.6151 8.512 37.4391 8.444 37.3031 8.308C37.1671 8.172 37.0991 8 37.0991 7.792C37.0991 7.512 37.2031 7.272 37.4111 7.072C37.6271 6.864 37.8711 6.76 38.1431 6.76C38.3591 6.76 38.5311 6.828 38.6591 6.964C38.7951 7.1 38.8631 7.272 38.8631 7.48C38.8631 7.76 38.7591 8.004 38.5511 8.212C38.3431 8.412 38.1031 8.512 37.8311 8.512ZM38.3471 9.388L37.1831 16H35.8151L36.9791 9.388H38.3471ZM41.4151 16.108C40.9591 16.108 40.5431 16.032 40.1671 15.88C39.7911 15.72 39.4951 15.5 39.2791 15.22C39.0631 14.932 38.9551 14.604 38.9551 14.236C38.9551 14.172 38.9631 14.084 38.9791 13.972H40.3111C40.2791 14.276 40.3711 14.528 40.5871 14.728C40.8031 14.928 41.1071 15.028 41.4991 15.028C41.8831 15.028 42.1991 14.96 42.4471 14.824C42.6951 14.688 42.8191 14.488 42.8191 14.224C42.8191 14 42.7151 13.82 42.5071 13.684C42.3071 13.548 41.9831 13.396 41.5351 13.228C41.1111 13.06 40.7671 12.904 40.5031 12.76C40.2391 12.616 40.0111 12.42 39.8191 12.172C39.6271 11.916 39.5311 11.6 39.5311 11.224C39.5311 10.84 39.6391 10.504 39.8551 10.216C40.0791 9.92 40.3871 9.692 40.7791 9.532C41.1791 9.364 41.6351 9.28 42.1471 9.28C42.6111 9.28 43.0231 9.36 43.3831 9.52C43.7511 9.672 44.0351 9.892 44.2351 10.18C44.4431 10.46 44.5471 10.784 44.5471 11.152C44.5471 11.264 44.5431 11.348 44.5351 11.404H43.2391C43.2711 11.092 43.1791 10.84 42.9631 10.648C42.7551 10.456 42.4551 10.36 42.0631 10.36C41.7191 10.36 41.4391 10.432 41.2231 10.576C41.0151 10.72 40.9111 10.916 40.9111 11.164C40.9111 11.412 41.0191 11.612 41.2351 11.764C41.4511 11.908 41.7831 12.068 42.2311 12.244C42.6391 12.404 42.9711 12.556 43.2271 12.7C43.4831 12.844 43.7031 13.036 43.8871 13.276C44.0711 13.516 44.1631 13.816 44.1631 14.176C44.1631 14.568 44.0431 14.912 43.8031 15.208C43.5711 15.496 43.2471 15.72 42.8311 15.88C42.4151 16.032 41.9431 16.108 41.4151 16.108ZM47.4053 8.512C47.1893 8.512 47.0133 8.444 46.8773 8.308C46.7413 8.172 46.6733 8 46.6733 7.792C46.6733 7.512 46.7773 7.272 46.9853 7.072C47.2013 6.864 47.4453 6.76 47.7173 6.76C47.9333 6.76 48.1053 6.828 48.2333 6.964C48.3693 7.1 48.4373 7.272 48.4373 7.48C48.4373 7.76 48.3333 8.004 48.1253 8.212C47.9173 8.412 47.6773 8.512 47.4053 8.512ZM47.9213 9.388L46.7573 16H45.3893L46.5533 9.388H47.9213ZM53.0773 9.28C53.7733 9.28 54.3253 9.468 54.7333 9.844C55.1493 10.212 55.3573 10.744 55.3573 11.44C55.3573 11.616 55.3373 11.836 55.2973 12.1L54.6013 16H53.2453L53.9053 12.304C53.9373 12.08 53.9533 11.92 53.9533 11.824C53.9533 11.384 53.8293 11.048 53.5813 10.816C53.3413 10.584 53.0053 10.468 52.5733 10.468C52.0533 10.468 51.6133 10.628 51.2533 10.948C50.9013 11.26 50.6773 11.712 50.5813 12.304V12.268L49.9213 16H48.5533L49.7173 9.388H51.0853L50.9533 10.156C51.2253 9.884 51.5453 9.672 51.9133 9.52C52.2893 9.36 52.6773 9.28 53.0773 9.28ZM60.3783 9.28C61.2023 9.28 61.8583 9.512 62.3463 9.976C62.8423 10.44 63.0903 11.064 63.0903 11.848C63.0903 12.032 63.0703 12.252 63.0303 12.508C62.9983 12.684 62.9423 12.9 62.8623 13.156H57.8103C57.8023 13.212 57.7983 13.296 57.7983 13.408C57.7983 13.88 57.9423 14.256 58.2303 14.536C58.5263 14.816 58.9103 14.956 59.3823 14.956C60.1263 14.956 60.6983 14.648 61.0983 14.032H62.5743C62.2703 14.64 61.8223 15.14 61.2303 15.532C60.6383 15.916 59.9543 16.108 59.1783 16.108C58.6263 16.108 58.1423 16 57.7263 15.784C57.3103 15.568 56.9863 15.26 56.7543 14.86C56.5223 14.452 56.4063 13.976 56.4063 13.432C56.4063 13.2 56.4303 12.952 56.4783 12.688C56.5983 12.008 56.8423 11.412 57.2103 10.9C57.5783 10.38 58.0343 9.98 58.5783 9.7C59.1303 9.42 59.7303 9.28 60.3783 9.28ZM61.6623 12.172C61.6783 12.028 61.6863 11.924 61.6863 11.86C61.6863 11.42 61.5383 11.072 61.2423 10.816C60.9543 10.56 60.5783 10.432 60.1143 10.432C59.6263 10.432 59.1863 10.588 58.7943 10.9C58.4023 11.212 58.1343 11.636 57.9903 12.172H61.6623Z" fill="white"/>
</svg>
