<svg width="30" height="35" viewBox="0 0 30 35" fill="none" xmlns="http://www.w3.org/2000/svg">
<g clip-path="url(#clip0_22_1070)">
<path d="M28.75 15.7143H1.25C0.559644 15.7143 0 16.3539 0 17.1429C0 17.9318 0.559644 18.5714 1.25 18.5714H28.75C29.4404 18.5714 30 17.9318 30 17.1429C30 16.3539 29.4404 15.7143 28.75 15.7143Z" fill="white"/>
<path d="M28.75 5.71429H1.25C0.559644 5.71429 0 6.35389 0 7.14287C0 7.93184 0.559644 8.57144 1.25 8.57144H28.75C29.4404 8.57144 30 7.93184 30 7.14287C30 6.35389 29.4404 5.71429 28.75 5.71429Z" fill="white"/>
<path d="M28.75 25.7143H1.25C0.559644 25.7143 0 26.3539 0 27.1429C0 27.9318 0.559644 28.5714 1.25 28.5714H28.75C29.4404 28.5714 30 27.9318 30 27.1429C30 26.3539 29.4404 25.7143 28.75 25.7143Z" fill="white"/>
</g>
<defs>
<clipPath id="clip0_22_1070">
<rect width="30" height="34.2857" fill="white"/>
</clipPath>
</defs>
</svg>
