<svg width="25" height="25" viewBox="0 0 25 25" fill="none" xmlns="http://www.w3.org/2000/svg">
<path d="M12.8902 2.82222C14.0986 2.82618 15.2942 3.06977 16.4079 3.53888C17.5216 4.00798 18.5311 4.6933 19.3782 5.55517H16.5341C16.2925 5.55517 16.0608 5.65115 15.8899 5.82199C15.7191 5.99283 15.6231 6.22454 15.6231 6.46615C15.6231 6.70776 15.7191 6.93947 15.8899 7.11031C16.0608 7.28116 16.2925 7.37713 16.5341 7.37713H20.3083C20.7569 7.37689 21.187 7.19858 21.5042 6.88138C21.8214 6.56418 21.9998 6.13403 22 5.68544V1.91123C22 1.66963 21.904 1.43791 21.7332 1.26707C21.5623 1.09623 21.3306 1.00025 21.089 1.00025V1.00025C20.8474 1.00025 20.6157 1.09623 20.4449 1.26707C20.274 1.43791 20.178 1.66963 20.178 1.91123V3.80426C18.6723 2.44822 16.8189 1.5381 14.8252 1.17584C12.8315 0.81358 10.7763 1.01347 8.88985 1.75313C7.00335 2.49279 5.36 3.74301 4.14383 5.36379C2.92766 6.98457 2.1867 8.91191 2.00392 10.93C1.99215 11.0568 2.00694 11.1848 2.04734 11.3056C2.08774 11.4264 2.15287 11.5375 2.23857 11.6318C2.32427 11.726 2.42867 11.8014 2.54512 11.8531C2.66156 11.9048 2.7875 11.9317 2.9149 11.932V11.932C3.13772 11.9349 3.35357 11.8545 3.52021 11.7065C3.68686 11.5586 3.79228 11.3538 3.81587 11.1322C4.01866 8.86454 5.06207 6.75466 6.74111 5.21704C8.42015 3.67943 10.6135 2.82522 12.8902 2.82222Z" fill="#CA6702" stroke="#CA6702"/>
<path d="M23.1217 13.5003C22.8988 13.4974 22.683 13.5779 22.5163 13.7258C22.3497 13.8737 22.2443 14.0785 22.2207 14.3001C22.0701 16.0339 21.4253 17.6882 20.3629 19.0666C19.3004 20.445 17.8649 21.4897 16.2266 22.0768C14.5882 22.6639 12.8159 22.7687 11.1198 22.3788C9.42366 21.9889 7.87498 21.1207 6.65745 19.8772H9.50154C9.74315 19.8772 9.97486 19.7812 10.1457 19.6103C10.3165 19.4395 10.4125 19.2078 10.4125 18.9662C10.4125 18.7246 10.3165 18.4928 10.1457 18.322C9.97486 18.1512 9.74315 18.0552 9.50154 18.0552H5.72734C5.50515 18.0551 5.28511 18.0987 5.07981 18.1837C4.87451 18.2687 4.68798 18.3933 4.53086 18.5504C4.37375 18.7075 4.24915 18.8941 4.16417 19.0994C4.0792 19.3047 4.03553 19.5247 4.03564 19.7469V23.5211C4.03564 23.7627 4.13162 23.9944 4.30247 24.1652C4.47331 24.3361 4.70502 24.4321 4.94663 24.4321C5.18824 24.4321 5.41995 24.3361 5.59079 24.1652C5.76163 23.9944 5.85761 23.7627 5.85761 23.5211V21.6281C7.36331 22.9841 9.21678 23.8942 11.2105 24.2565C13.2041 24.6187 15.2593 24.4188 17.1458 23.6792C19.0323 22.9395 20.6756 21.6893 21.8918 20.0685C23.108 18.4477 23.8489 16.5204 24.0317 14.5024C24.0435 14.3755 24.0287 14.2476 23.9883 14.1267C23.9479 14.0059 23.8828 13.8948 23.7971 13.8005C23.7114 13.7063 23.607 13.6309 23.4905 13.5792C23.3741 13.5275 23.2481 13.5006 23.1207 13.5003H23.1217Z" fill="#CA6702" stroke="#CA6702"/>
</svg>
